<svg xmlns="http://www.w3.org/2000/svg" version="1.1" xmlns:xlink="http://www.w3.org/1999/xlink" xmlns:svgjs="http://svgjs.dev/svgjs" width="2000" height="2000" viewBox="0 0 2000 2000"><g transform="matrix(1,0,0,1,-0.28443113772425477,-0.28443113772459583)"><svg viewBox="0 0 334 334" data-background-color="#ffffff" preserveAspectRatio="xMidYMid meet" height="2000" width="2000" xmlns="http://www.w3.org/2000/svg" xmlns:xlink="http://www.w3.org/1999/xlink"><g id="tight-bounds" transform="matrix(1,0,0,1,0.04749999999998522,0.04750000000001364)"><svg viewBox="0 0 333.90454557049503 333.90454557049503" height="333.90454557049503" width="333.90454557049503"><g><svg></svg></g><g><svg viewBox="0 0 333.90454557049503 333.90454557049503" height="333.90454557049503" width="333.90454557049503"><g><path d="M0 166.952c0-92.205 74.747-166.952 166.952-166.952 92.205 0 166.952 74.747 166.953 166.952 0 92.205-74.747 166.952-166.953 166.953-92.205 0-166.952-74.747-166.952-166.953zM166.952 316.63c82.665 0 149.677-67.013 149.678-149.678 0-82.665-67.013-149.677-149.678-149.677-82.665 0-149.677 67.013-149.677 149.677 0 82.665 67.013 149.677 149.677 149.678z" data-fill-palette-color="tertiary" fill="#ed3b43" stroke="transparent"></path><ellipse rx="160.27418187383762" ry="160.27418187383762" cx="166.95227278524752" cy="166.95227278524752" fill="#ed3b43" stroke="transparent" stroke-width="0" fill-opacity="1" data-fill-palette-color="tertiary"></ellipse></g><g transform="matrix(1,0,0,1,136.2192316077837,71.17305217166896)"><svg viewBox="0 0 61.4660823549276 191.55844122715712" height="191.55844122715712" width="61.4660823549276"><g><svg viewBox="0 0 61.4660823549276 191.55844122715712" height="191.55844122715712" width="61.4660823549276"><g><svg viewBox="0 0 61.4660823549276 191.55844122715712" height="191.55844122715712" width="61.4660823549276"><g><svg viewBox="0 0 61.4660823549276 191.55844122715712" height="191.55844122715712" width="61.4660823549276"><g id="textblocktransform"><svg viewBox="0 0 61.4660823549276 191.55844122715712" height="191.55844122715712" width="61.4660823549276" id="textblock"><g><svg viewBox="0 0 61.4660823549276 191.55844122715712" height="191.55844122715712" width="61.4660823549276"><g transform="matrix(1,0,0,1,0,0)"><svg width="61.4660823549276" viewBox="-1.27 -35.35 16.14 50.29" height="191.55844122715712" data-palette-color="#ffffff"><path d="M6.23-4.96L6.23-32.42 1.86-33.18Q1.81-33.5 1.79-33.73 1.78-33.96 1.78-34.16L1.78-34.16Q1.78-34.5 1.86-34.84 1.93-35.18 2.03-35.35L2.03-35.35 14.65-35.35 14.87-33.3Q14.43-33.15 13.9-33.02 13.38-32.89 12.81-32.78 12.23-32.67 11.67-32.58 11.11-32.5 10.62-32.42L10.62-32.42 10.62-4.08Q10.62-0.32 9.95 2.69 9.28 5.69 7.97 8.02 6.67 10.35 4.74 12.06 2.81 13.77 0.29 14.94L0.29 14.94Q0.07 14.7-0.17 14.38-0.42 14.06-0.63 13.73-0.85 13.4-1.03 13.07-1.2 12.74-1.27 12.5L-1.27 12.5Q-0.05 11.62 0.98 10.72 2 9.81 2.83 8.75 3.66 7.69 4.3 6.42 4.93 5.15 5.36 3.5 5.79 1.86 6.01-0.22 6.23-2.29 6.23-4.96L6.23-4.96Z" opacity="1" transform="matrix(1,0,0,1,0,0)" fill="#ffffff" class="wordmark-text-0" data-fill-palette-color="quaternary" id="text-0"></path></svg></g></svg></g></svg></g></svg></g><g></g></svg></g></svg></g></svg></g></svg></g><defs></defs></svg><rect width="333.90454557049503" height="333.90454557049503" fill="none" stroke="none" visibility="hidden"></rect></g></svg></g></svg>